PathFileType	4	(X/Y/Z)	C:/Users/opensim2020/Desktop/walking_exp_matlab/subject06_walking15_straight_01.trc																																																																																																																																											
DataRate	CameraRate	NumFrames	NumMarkers	Units	OrigDataRate	OrigDataStartFrame	OrigNumFrames																																																																																																																																							
100	100	4	47	mm	100	863	232																																																																																																																																							
Frame#	Time	LFHD			RFHD			LBHD			RBHD			C7			T10			CLAV			STRN			RBAK			LSHO			LUPA			LELB			LFRM			LWRA			LWRB			LFIN			RSHO			RUPA			RELB			RFRM			RWRA			RWRB			RFIN			LASI			RASI			LPSI			RPSI			LTHI			LKNE			LTIB			LANK			LHEE			LTOE			RTHI			RKNE			RTIB			RANK			RHEE			RTOE			*39			*40			*41			*42			*43			*44			*45			*46		
		X1	Y1	Z1	X2	Y2	Z2	X3	Y3	Z3	X4	Y4	Z4	X5	Y5	Z5	X6	Y6	Z6	X7	Y7	Z7	X8	Y8	Z8	X9	Y9	Z9	X10	Y10	Z10	X11	Y11	Z11	X12	Y12	Z12	X13	Y13	Z13	X14	Y14	Z14	X15	Y15	Z15	X16	Y16	Z16	X17	Y17	Z17	X18	Y18	Z18	X19	Y19	Z19	X20	Y20	Z20	X21	Y21	Z21	X22	Y22	Z22	X23	Y23	Z23	X24	Y24	Z24	X25	Y25	Z25	X26	Y26	Z26	X27	Y27	Z27	X28	Y28	Z28	X29	Y29	Z29	X30	Y30	Z30	X31	Y31	Z31	X32	Y32	Z32	X33	Y33	Z33	X34	Y34	Z34	X35	Y35	Z35	X36	Y36	Z36	X37	Y37	Z37	X38	Y38	Z38	X39	Y39	Z39	X40	Y40	Z40	X41	Y41	Z41	X42	Y42	Z42	X43	Y43	Z43	X44	Y44	Z44	X45	Y45	Z45	X46	Y46	Z46	X47	Y47	Z47
																																																																																																																																														
88	0.87	-370.75378	1637.79041	1356.77319	-359.14172	1638.56323	1488.40381	-501.65881	1579.5509	1372.78271	-489.06003	1585.39246	1501.83435	-493.70517	1428.52002	1437.97864	-528.45355	1100.97229	1464.0437	-379.00754	1353.50647	1437.03552	-338.0361	1179.92053	1440.04321	-562.66522	1263.96411	1530.77649	-445.83026	1374.96338	1275.5918	-488.29669	1174.94165	1217.41943	-518.92419	1066.72205	1214.61792	-530.33307	916.31592	1195.69482	-488.45236	791.94019	1229.98645	-555.66193	799.72998	1204.63782	-532.91241	711.35437	1199.84668	-422.45242	1393.03345	1597.8446	-448.64713	1201.03296	1700.68665	-425.72733	1084.0719	1722.33643	-366.18451	982.72589	1740.39929	-252.44884	886.89343	1704.16003	-299.47498	864.06927	1745.95667	-232.00218	815.1889	1748.23279	-342.49677	946.8114	1362.63843	-358.19766	949.3963	1579.62354	-503.79431	964.63165	1378.40369	-507.3078	971.5462	1546.62268	-342.22064	636.3147	1291.8866	-291.07214	485.10077	1322.78564	-254.66125	230.96834	1328.60461	-201.11195	67.28126	1367.26624	-233.62581	47.46976	1416.28625	-52.39954	63.85439	1368.46484	-459.35077	612.05011	1623.92957	-481.13712	486.15359	1602.68628	-646.00104	269.08459	1589.73999	-751.05341	116.20303	1540.06555	-798.16943	110.89334	1495.21936	-623.21008	35.70071	1537.92029	-467.23483	1678.54211	1420.96472	NaN	NaN	NaN	NaN	NaN	NaN	NaN	NaN	NaN	NaN	NaN	NaN	NaN	NaN	NaN	NaN	NaN	NaN	NaN	NaN	NaN
89	0.88	-360.66281	1638.96155	1356.08276	-349.32996	1639.53479	1487.80762	-491.30698	1580.10803	1371.7019	-478.9834	1585.72131	1500.8302	-483.19302	1429.05237	1436.59949	-516.25684	1101.12915	1462.16846	-368.21008	1354.43933	1436.06055	-326.57434	1180.88831	1439.12146	-551.69824	1263.76904	1528.6228	-435.01102	1375.55493	1274.31299	-476.28317	1175.27026	1216.13684	-506.18219	1066.81091	1213.70178	-517.12787	916.37384	1194.73877	-474.14981	792.27856	1229.26855	-541.52509	799.52124	1203.8186	-518.71625	711.38947	1199.3197	-412.27911	1393.44043	1596.81128	-438.69394	1201.12573	1699.36243	-416.54062	1083.77234	1720.8894	-358.56628	981.31201	1739.09436	-246.44489	883.16479	1703.27124	-293.82788	861.52362	1745.29297	-227.30733	811.42883	1747.72803	-329.50681	947.39441	1362.25366	-346.38406	950.01831	1579.00256	-490.59906	965.66101	1376.51721	-495.28204	972.12073	1544.92871	-331.42249	636.21692	1290.79333	-282.56696	485.05014	1321.4408	-246.53256	231.65105	1327.61548	-195.84526	67.42036	1365.80408	-230.22957	49.00768	1414.39465	-46.70811	58.84936	1369.89636	-447.5098	612.32867	1623.8241	-468.6929	486.21494	1603.19153	-637.64215	272.82077	1589.36902	-746.22186	122.70201	1539.83997	-792.87372	119.46175	1494.93372	-622.76776	35.81622	1537.5376	-457.43506	1679.12622	1420.24158	NaN	NaN	NaN	NaN	NaN	NaN	NaN	NaN	NaN	NaN	NaN	NaN	NaN	NaN	NaN	NaN	NaN	NaN	NaN	NaN	NaN
90	0.89	-350.49435	1640.67468	1355.43982	-339.73178	1640.95581	1487.03296	-480.91641	1581.23267	1370.6012	-468.99396	1586.58044	1499.82947	-472.57083	1430.17224	1435.25085	-504.01483	1101.81946	1460.52649	-357.47183	1355.79199	1434.99304	-315.14825	1182.31848	1438.27551	-540.96423	1264.14624	1526.47046	-423.96234	1376.49707	1273.0271	-464.25861	1175.89941	1214.76379	-493.52716	1067.07312	1212.51331	-503.36655	916.66156	1193.76318	-460.10168	792.79523	1228.65649	-527.18768	799.74335	1202.9906	-503.84647	711.72809	1198.72778	-402.0274	1394.23462	1595.87451	-428.81311	1201.5741	1697.86243	-406.99731	1083.85071	1719.52075	-350.83875	980.19104	1737.84106	-240.92267	879.3952	1702.22144	-288.73746	859.13593	1744.60815	-223.25882	807.71686	1747.17773	-316.72491	948.51501	1361.76709	-334.32858	951.1427	1578.35559	-477.64584	967.56171	1375.09595	-484.45712	973.29608	1543.58496	-321.18942	637.46454	1289.46082	-273.99982	485.78259	1319.43384	-238.79256	232.86877	1325.40173	-191.996	66.97778	1364.73071	-228.40233	50.1991	1412.87402	-43.02567	54.3309	1371.85303	-435.08566	613.04437	1623.58411	-455.36185	486.57944	1603.59277	-628.27856	277.02771	1588.88013	-740.36804	129.89838	1539.29944	-786.4057	128.8867	1493.96252	-622.07288	36.0078	1536.99487	-447.60715	1680.30823	1419.38477	NaN	NaN	NaN	NaN	NaN	NaN	NaN	NaN	NaN	NaN	NaN	NaN	NaN	NaN	NaN	NaN	NaN	NaN	NaN	NaN	NaN
91	0.9	-340.18842	1642.58264	1354.7417	-329.78018	1642.66467	1486.30457	-470.49088	1582.79224	1369.42578	-458.90961	1587.94922	1498.56934	-461.91495	1431.70288	1433.98206	-492.0517	1103.005	1458.9884	-346.77002	1357.49866	1433.97534	-303.66733	1184.19324	1437.28735	-529.9483	1264.84412	1524.30176	-412.84122	1377.82373	1271.79321	-451.59686	1176.7959	1213.88599	-480.68564	1068.02795	1211.01685	-489.30362	917.28003	1192.59558	-445.09271	793.7981	1227.86841	-512.27271	800.28925	1202.07837	-488.24182	712.43256	1197.97229	-391.79779	1395.54529	1594.98303	-419.1828	1202.5332	1696.07581	-397.46381	1084.43042	1717.7594	-343.63089	979.39673	1736.18616	-235.99539	875.78357	1701.13037	-284.20752	856.974	1743.84277	-219.88536	804.13678	1746.57251	-304.14899	950.24884	1361.10608	-322.1011	952.69482	1577.49976	-465.43872	970.13513	1374.07336	-472.54587	975.07727	1542.35181	-310.98273	639.57294	1288.25037	-264.52539	487.10483	1317.45374	-232.80762	233.42174	1323.23901	-189.84335	66.74998	1364.05164	-226.97426	50.79063	1411.58276	-41.22075	50.32793	1372.67554	-421.9082	614.08765	1623.30334	-440.7793	487.18588	1604.38721	-617.90094	281.71674	1588.30615	-733.34344	137.64165	1538.31897	-778.36127	138.86342	1492.38232	-621.21552	36.29289	1536.30908	-437.60684	1681.88647	1418.474	NaN	NaN	NaN	NaN	NaN	NaN	NaN	NaN	NaN	NaN	NaN	NaN	NaN	NaN	NaN	NaN	NaN	NaN	NaN	NaN	NaN
